<svg viewBox="0 0 850 584" xmlns="http://www.w3.org/2000/svg" role="img" font-family="'Segoe UI','Hiragino Sans','Meiryo',sans-serif">
<title>勤怠・工数突き合わせシステムの構成とデータの流れ</title>
<desc>社内ネットワーク（灰）・GCP（青）・外部SaaS（橙）の3エリアを背景色で層別し、各コンポーネントに種類を示すアイコンと処理順の番号付き矢印を重ねた構成図。外部SaaSにはHRMOS APIとMicrosoft（Azure AD・Graph・共有メールボックス）を含み、Azure登録情報も併記。</desc>
<style>
  .th{font-size:14px;font-weight:600;fill:#1a1a2e}
  .ts{font-size:12px;fill:#3f4a5c}
  .thc{font-size:17px;font-weight:700;fill:#111827}
  .tsc{font-size:12px;fill:#475467}
  .zlabel{font-size:14px;font-weight:700;fill:#334155}
  .box{fill:#ffffff;stroke:#cbd5e1;stroke-width:1}
  .hub{fill:#dbeafe;stroke:#1d4ed8;stroke-width:1.4}
  .arr{fill:none;stroke:#98a2b3;stroke-width:1.5;stroke-linecap:round}
  .alabel{font-size:12px;fill:#475467}
  .note{font-size:13px;fill:#1f2937}
  .nh{font-size:13px;font-weight:700;fill:#7c3a06}
  .ico{fill:none;stroke:#475467;stroke-width:1.8;stroke-linecap:round;stroke-linejoin:round}
  .num{font-size:20px;font-weight:700;fill:#1d4ed8;paint-order:stroke;stroke:#ffffff;stroke-width:4;stroke-linejoin:round}
  .lgh{font-size:12px;font-weight:600;fill:#334155}
  .lg{font-size:15px;fill:#1f2937}
</style>
<defs><marker id="arrow" viewBox="0 0 10 10" refX="8" refY="5" markerWidth="6" markerHeight="6" orient="auto-start-reverse"><path d="M2 1L8 5L2 9" fill="none" stroke="#98a2b3" stroke-width="1.5" stroke-linecap="round" stroke-linejoin="round"/></marker></defs>

<text x="20" y="22" class="thc">勤怠・工数突き合わせシステム — 構成とデータの流れ</text>
<rect x="12" y="52" width="150" height="172" rx="8" fill="#ffffff" stroke="#1d4ed8" stroke-width="1.6"/>
<rect x="12" y="52" width="150" height="24" rx="8" fill="#1d4ed8"/>
<rect x="12" y="66" width="150" height="10" fill="#1d4ed8"/>
<text x="22" y="69" style="font-size:15px;font-weight:700;fill:#ffffff">処理の流れ</text>
<text x="22" y="98" class="lg">① 取得</text>
<text x="22" y="116" class="lg">② GCS保存</text>
<text x="22" y="134" class="lg">③ 起動</text>
<text x="22" y="152" class="lg">④ 取得 / 認証</text>
<text x="22" y="170" class="lg">⑤ メール送信</text>
<text x="22" y="188" class="lg">⑥ 保存</text>
<text x="22" y="206" class="lg">⑦ 手動実行</text>

<g transform="translate(150,0)">
<rect x="20" y="52" width="308" height="94" rx="10" fill="#eef2f7" stroke="#94a3b8" stroke-width="1.2"/>
<text x="30" y="69" class="zlabel">社内ネットワーク</text>
<rect x="34" y="80" width="132" height="54" rx="8" class="box"/>
<g class="ico" transform="translate(44,96) scale(0.92)"><rect x="3" y="4" width="18" height="12" rx="1.5"/><path d="M9 20h6M12 16v4"/></g>
<text x="74" y="105" class="th">社内PC</text>
<text x="74" y="121" class="ts">取得スクリプト</text>
<rect x="190" y="80" width="128" height="54" rx="8" class="box"/>
<g class="ico" transform="translate(200,96) scale(0.92)"><ellipse cx="12" cy="6" rx="7" ry="3"/><path d="M5 6v12c0 1.7 3.1 3 7 3s7-1.3 7-3V6"/><path d="M5 12c0 1.7 3.1 3 7 3s7-1.3 7-3"/></g>
<text x="230" y="105" class="th">SUMTIME DB</text>
<text x="230" y="121" class="ts">PostgreSQL</text>
<line x1="190" y1="107" x2="170" y2="107" class="arr" marker-end="url(#arrow)"/>
<text x="178" y="103" class="num" text-anchor="middle">①</text>

<rect x="20" y="162" width="460" height="336" rx="10" fill="#e8f1fe" stroke="#3b82f6" stroke-width="1.2"/>
<text x="30" y="179" class="zlabel">GCP（クラウド）</text>

<rect x="34" y="192" width="152" height="54" rx="8" class="box"/>
<g class="ico" transform="translate(44,208) scale(0.92)"><path d="M5 6h14l-1.4 12.6A2 2 0 0 1 15.6 20.4H8.4a2 2 0 0 1-2-1.8L5 6z"/><ellipse cx="12" cy="6" rx="7" ry="2.2"/></g>
<text x="74" y="217" class="th">Cloud Storage</text>
<text x="74" y="233" class="ts">工数(master)</text>

<rect x="310" y="192" width="166" height="54" rx="8" class="box"/>
<g class="ico" transform="translate(320,208) scale(0.92)"><circle cx="12" cy="12" r="8"/><path d="M12 7v5l3 2"/></g>
<text x="350" y="217" class="th">Cloud Scheduler</text>
<text x="350" y="233" class="ts">定期実行</text>

<rect x="34" y="300" width="152" height="54" rx="8" class="box"/>
<g class="ico" transform="translate(44,316) scale(0.92)"><circle cx="8" cy="9" r="4"/><path d="M11 12l7 7M16 17l2-2M18 19l2-2"/></g>
<text x="74" y="325" class="th">Secret Manager</text>
<text x="74" y="341" class="ts">認証情報</text>

<rect x="230" y="294" width="166" height="64" rx="8" class="hub"/>
<g transform="translate(240,313) scale(0.92)" fill="none" stroke="#1d4ed8" stroke-width="1.8" stroke-linecap="round" stroke-linejoin="round"><path d="M13 3 5 13h5l-1 8 8-10h-5l1-8z"/></g>
<text x="270" y="322" class="th" fill="#15407a">Cloud Functions</text>
<text x="270" y="340" class="ts" fill="#1d4ed8">突き合わせ処理</text>

<rect x="34" y="406" width="152" height="54" rx="8" class="box"/>
<g class="ico" transform="translate(44,422) scale(0.92)"><path d="M12 3 3 8l9 5 9-5-9-5z"/><path d="M3 13l9 5 9-5"/></g>
<text x="74" y="431" class="th">Firestore</text>
<text x="74" y="447" class="ts">設定・実行結果</text>

<rect x="310" y="406" width="166" height="54" rx="8" class="box"/>
<g class="ico" transform="translate(320,422) scale(0.92)"><rect x="4" y="4" width="16" height="16" rx="3"/><path d="M10 9l5 3-5 3V9z" fill="#475467" stroke="none"/></g>
<text x="350" y="431" class="th">Cloud Run</text>
<text x="350" y="447" class="ts">管理UI</text>

<g transform="translate(12,0)">
<rect x="500" y="52" width="168" height="446" rx="10" fill="#fff4e6" stroke="#f59e0b" stroke-width="1.2"/>
<text x="510" y="69" class="zlabel">外部SaaS</text>
<rect x="512" y="80" width="144" height="50" rx="8" class="box"/>
<g class="ico" transform="translate(520,94) scale(0.9)"><path d="M9 7H6a3 3 0 0 0 0 6h3M15 7h3a3 3 0 0 1 0 6h-3M8 10h8"/></g>
<text x="550" y="101" class="th">HRMOS API</text>
<text x="550" y="118" class="ts">勤怠データ</text>

<text x="512" y="152" class="nh">Microsoft 365 / Azure</text>
<rect x="512" y="158" width="144" height="50" rx="8" class="box"/>
<g class="ico" transform="translate(520,172) scale(0.9)"><path d="M12 3 5 6v5c0 4 3 7 7 8 4-1 7-4 7-8V6l-7-3z"/></g>
<text x="550" y="179" class="th">Azure AD</text>
<text x="550" y="196" class="ts">Entra ID アプリ</text>
<rect x="512" y="220" width="144" height="50" rx="8" class="box"/>
<g class="ico" transform="translate(520,234) scale(0.9)"><circle cx="6" cy="12" r="2.5"/><circle cx="17" cy="6" r="2.5"/><circle cx="17" cy="18" r="2.5"/><path d="M8.2 11l6.6-3.8M8.2 13l6.6 3.8"/></g>
<text x="550" y="241" class="th">Microsoft Graph</text>
<text x="550" y="258" class="ts">sendMail</text>
<rect x="512" y="282" width="144" height="50" rx="8" class="box"/>
<g class="ico" transform="translate(520,296) scale(0.9)"><rect x="3" y="5" width="18" height="14" rx="2"/><path d="M3 7l9 6 9-6"/></g>
<text x="550" y="303" class="th">メールボックス</text>
<text x="550" y="320" class="ts">共有（送信元）</text>

<rect x="512" y="346" width="144" height="86" rx="8" fill="#fffaf0" stroke="#f0c98a" stroke-width="1"/>
<text x="520" y="365" class="nh">Azure AD アプリ登録</text>
<text x="520" y="387" class="note">権限: Mail.Send</text>
<text x="520" y="405" class="note">保管: Secret Manager</text>
<text x="520" y="423" class="note">失効: 2026-10-17</text>
</g>

<rect x="300" y="508" width="184" height="48" rx="8" fill="#eef2f7" stroke="#94a3b8" stroke-width="1.2"/>
<g class="ico" transform="translate(314,521) scale(0.9)"><circle cx="12" cy="8" r="3.5"/><path d="M5.5 20a6.5 6.5 0 0 1 13 0"/></g>
<text x="344" y="537" class="th">管理者（ブラウザ）</text>

<path class="arr" d="M100 134 V192" marker-end="url(#arrow)"/>
<text x="100" y="167" class="num" text-anchor="middle">②</text>
<path class="arr" d="M393 246 V270 H313 V294" marker-end="url(#arrow)"/>
<text x="345" y="266" class="num" text-anchor="middle">③</text>
<path class="arr" d="M186 219 H193 V310 H230" marker-end="url(#arrow)"/>
<text x="193" y="250" class="num" text-anchor="middle">④</text>
<path class="arr" d="M186 327 H230" marker-end="url(#arrow)"/>
<text x="193" y="343" class="num" text-anchor="middle">④</text>
<path class="arr" d="M396 310 H496 V106 H524" marker-end="url(#arrow)"/>
<text x="490" y="200" class="num" text-anchor="middle">④</text>
<path class="arr" d="M396 335 H502 V246 H524" marker-end="url(#arrow)"/>
<text x="446" y="330" class="num" text-anchor="middle">⑤</text>
<line x1="596" y1="208" x2="596" y2="220" class="arr" marker-end="url(#arrow)"/>
<line x1="596" y1="270" x2="596" y2="282" class="arr" marker-end="url(#arrow)"/>
<path class="arr" d="M240 358 V382 H110 V406" marker-end="url(#arrow)"/>
<text x="180" y="378" class="num" text-anchor="middle">⑥</text>
<path class="arr" d="M392 508 V462" marker-end="url(#arrow)"/>
<text x="404" y="492" class="num" text-anchor="middle">⑦</text>
<path class="arr" d="M360 406 V382 H320 V358" marker-end="url(#arrow)"/>
<path class="arr" d="M310 433 H188" marker-end="url(#arrow)"/>

</g>
</svg>
